<svg width="24" height="24" viewBox="0 0 24 24" fill="none" xmlns="http://www.w3.org/2000/svg">
<path d="M20.4853 3.51473C18.2188 1.24823 15.2053 0 12 0C8.79469 0 5.78119 1.24823 3.51473 3.51473C1.24819 5.78119 0 8.79469 0 12C0 15.2053 1.24819 18.2188 3.51473 20.4853C5.78119 22.7518 8.79469 24 12 24C15.2053 24 18.2188 22.7518 20.4853 20.4853C22.7518 18.2188 24 15.2053 24 12C24 8.79469 22.7518 5.78119 20.4853 3.51473ZM12 22.5714C6.17091 22.5714 1.42856 17.8291 1.42856 12C1.42856 6.17091 6.17091 1.42856 12 1.42856C17.8291 1.42856 22.5714 6.17091 22.5714 12C22.5714 17.8291 17.8291 22.5714 12 22.5714Z" fill="#999999"/>
<path d="M9.40495 8.8314C8.23528 7.66162 6.33201 7.66171 5.16234 8.8314C4.88339 9.11031 4.88339 9.56262 5.16234 9.84157C5.44134 10.1205 5.89364 10.1205 6.17254 9.84157C6.7853 9.22886 7.78223 9.22891 8.39489 9.84157C8.53439 9.98107 8.71716 10.0508 8.89992 10.0508C9.08269 10.0508 9.26555 9.98107 9.40495 9.84157C9.68391 9.56262 9.68391 9.11036 9.40495 8.8314Z" fill="#999999"/>
<path d="M18.8347 8.8314C17.665 7.66171 15.7617 7.66162 14.592 8.8314C14.3131 9.11031 14.3131 9.56262 14.592 9.84157C14.871 10.1205 15.3233 10.1205 15.6022 9.84157C16.2149 9.22886 17.2118 9.22881 17.8246 9.84157C17.9641 9.98107 18.1469 10.0508 18.3296 10.0508C18.5124 10.0508 18.6952 9.98107 18.8347 9.84157C19.1136 9.56262 19.1136 9.11036 18.8347 8.8314Z" fill="#999999"/>
<path d="M18.3341 12.5234H5.66741C5.27291 12.5234 4.95312 12.8433 4.95312 13.2377C4.95312 17.1237 8.1147 20.2853 12.0007 20.2853C15.8868 20.2853 19.0483 17.1237 19.0483 13.2377C19.0483 12.8432 18.7286 12.5234 18.3341 12.5234ZM12.0007 18.8568C9.14427 18.8568 6.77877 16.7144 6.42688 13.952H17.5746C17.2227 16.7144 14.8572 18.8568 12.0007 18.8568Z" fill="#999999"/>
</svg>
