<svg width="31" height="30" viewBox="0 0 31 30" fill="none" xmlns="http://www.w3.org/2000/svg">
<path d="M30.3166 13.8869L2.81663 0.136898C2.60109 0.029106 2.35899 -0.0140837 2.11948 0.0125289C1.87996 0.0391416 1.65325 0.134422 1.46663 0.286897C1.28841 0.436263 1.15539 0.632381 1.08251 0.853202C1.00964 1.07402 0.999813 1.3108 1.05413 1.5369L4.36663 13.7494H18.5041C19.8591 14.032 19.8592 15.967 18.5041 16.2494H4.36663L1.00413 28.4244C0.953161 28.6132 0.947212 28.8114 0.986758 29.0029C1.0263 29.1944 1.11024 29.374 1.23183 29.5272C1.35341 29.6804 1.50924 29.8029 1.68679 29.8849C1.86435 29.967 2.05867 30.0062 2.25413 29.9994C2.44981 29.9982 2.64248 29.9511 2.81663 29.8619L30.3166 16.1119C30.5214 16.007 30.6932 15.8476 30.8132 15.6513C30.9332 15.4551 30.9967 15.2295 30.9967 14.9994C30.9967 14.7693 30.9332 14.5437 30.8132 14.3475C30.6932 14.1512 30.5214 13.9918 30.3166 13.8869Z" fill="#084482"/>
</svg>
